
<svg xmlns="http://www.w3.org/2000/svg" version="1.1" xmlns:xlink="http://www.w3.org/1999/xlink" preserveAspectRatio="none" x="0px" y="0px" width="1920px" height="1020px" viewBox="0 0 1920 1020">
<defs>
<g id="Layer3_0_FILL">
<path fill="#E7F0F6" stroke="none" d="
M 39.2 -14.2
Q 35 -13.05 32.1 -11.55 25.4 -8.25 21.4 -1.9 18.15 3.05 17.05 9.45 15.75 16.8 17.85 22.65 20.65 30.55 30.4 37.15 40.25 43.95 49.5 44.5 54.85 44.85 59.75 43.05 64.9 41.1 68.15 37.25 70.3 34.6 72 30.45 72.4 29.15 73.6 25.7 73.95 24.45 74.45 23 76.05 18.05 76.4 16.6 77.4 13 77.5 10.15 77.85 4.55 75.45 -0.95 73.05 -6.1 68.7 -10 63.55 -14.6 57.5 -15.8 54.3 -16.45 50.55 -16.2 47.65 -16 43.45 -15.15 41.2 -14.7 39.2 -14.2 Z"/>

<path fill="#FF0000" stroke="none" d="
M 39.7 -19.15
Q 39.2 -15.05 39.2 -14.2 41.2 -14.7 43.45 -15.15 47.65 -16 50.55 -16.2 54.3 -16.45 57.5 -15.8 63.55 -14.6 68.7 -10 73.05 -6.1 75.45 -0.95 77.85 4.55 77.5 10.15 77.4 13 76.4 16.6 76.05 18.05 74.45 23 73.95 24.45 73.6 25.7 77.35 25.5 80.7 24.75 82.1 24.35 85 23.65 85.8 23.5 87.75 23.3 89.55 23.05 90.55 22.85 93.1 22.15 95.2 20.55 97.3 18.8 98.45 16.6 99.5 14.2 99.4 11.55 99.15 8.75 97.8 6.65 96.1 4.35 92.95 2.85 90.55 1.8 86.9 1.05 89.45 -1.2 90.2 -5 90.9 -8.45 90.1 -12.25 88.6 -19.65 83.9 -22.5 80.8 -24.35 76.45 -24.15 73.25 -24.1 68.75 -22.75 68.55 -27.25 66.1 -31.2 63.6 -35.2 59.6 -37 55.55 -38.85 50.9 -37.9 46.15 -36.85 43.5 -33.35 41.55 -30.8 40.7 -26.65 40.4 -25.15 39.7 -19.15 Z"/>
</g>

<g id="Layer2_0_FILL">
<path fill="#FF9900" stroke="none" d="
M 26.25 24.25
L 26.85 -3.45 -7.6 2.7 26.25 24.25 Z"/>
</g>

<g id="Layer1_0_FILL">
<path fill="#000000" stroke="none" d="
M 49.5 -3.4
Q 48.45 -3.95 47.15 -3.8 45.85 -3.65 44.75 -2.9 43.2 -1.95 42.7 -0.5 42.45 0.15 42.35 1.85 42.35 3.15 42.5 3.8 42.65 4.85 43.25 5.55 44.1 6.55 45.7 6.75 47.25 6.9 48.75 6.3 50.25 5.65 50.95 4.35 51.5 3.3 51.6 1.7 51.65 0.05 51.2 -1.2 50.65 -2.7 49.5 -3.4 Z"/>
</g>

<g id="Layer0_0_FILL">
<path fill="#009900" stroke="none" d="
M 130.7 -156.05
Q 126.6 -159.3 123.9 -160.2 122.1 -160.8 119.75 -160.9 118.3 -161 115.45 -160.9 112.7 -160.8 111.4 -160.65 109.1 -160.35 107.45 -159.7 105.95 -159.1 103.6 -157.5 100.9 -155.7 99.75 -155.15 96.45 -153.45 92.05 -153.2 88.65 -152.95 83.85 -153.55 76.15 -154.55 75.8 -154.6 71.15 -155.05 67.7 -154.55 68.05 -153.15 67.6 -148.45 67.3 -144.75 68.7 -143 70.15 -141.3 73.65 -140.9 77.05 -140.5 83.2 -141.05 89.9 -141.7 92.8 -141.5 95.5 -141.25 96.85 -141.15 99.2 -141 100.85 -141.35 103.7 -141.9 109.45 -146.2 114.6 -150.05 118.1 -149.95 121.55 -149.85 125.65 -146.4 131.75 -141.3 132.6 -140.8 136.85 -138.35 142.85 -138.75 147.4 -139.05 153.5 -141.1 164.7 -144.9 172.1 -149.95 176 -152.65 177.3 -153.25 179.5 -154.2 183.75 -154.8 185.7 -155.05 186.45 -155.1 188 -155.2 189.15 -154.9 190.5 -154.6 192 -153.55 192.9 -152.95 194.65 -151.65 196.4 -150.4 200.3 -148.25 204.15 -146.1 205.95 -144.8 206.6 -144.3 207.85 -143.35 208.95 -142.5 209.8 -142.05 213.3 -140.1 217.3 -141 217.7 -144.2 217.2 -148.2 216.85 -150.85 215.85 -155.3 215.4 -157.95 214.5 -159.4 211 -160 205.7 -163.3 199.65 -167.05 197 -167.9 192.7 -169.35 186.7 -168.75 177.85 -167.9 169.95 -163.55 167.5 -162.2 162.4 -158.6 157.55 -155.25 154.8 -153.8 150.4 -151.4 146.2 -150.75 141.3 -150 137.4 -151.65 135.1 -152.6 130.7 -156.05
M 199.6 -204.9
Q 194.25 -207.05 188.45 -206.25 178.7 -204.95 168.65 -196.05 164 -192.05 162.6 -191.1 159 -188.6 155.65 -188.25 149.7 -187.65 142.3 -193.8 140.4 -195.4 136.6 -198.75 133.2 -201.45 130.2 -202.6 125.75 -204.3 119.05 -203.6 114.15 -203.1 110.75 -201.65 107.9 -200.5 103.2 -197.35 100.6 -195.6 99.35 -194.25 97.55 -192.2 97.6 -190.1
L 73.5 -190.45
Q 66.45 -190.55 62.9 -190.8
L 62.9 -180.55
Q 83.2 -178.2 103 -179.75
L 103.15 -180.95
Q 104.75 -181.9 106.45 -184.05 108.25 -186.6 109.25 -187.75 111.85 -190.6 115.7 -191.95 119.5 -193.25 123.45 -192.8 127.3 -192.3 130.8 -190.25 134.2 -188.2 136.6 -185.05 137.35 -184.1 138.7 -182.1 139.95 -180.45 141.2 -179.6 142.6 -178.6 144.75 -178.15 146.1 -177.85 148.65 -177.65 159.5 -177.05 165.55 -179.45 169.85 -181.15 176.1 -186.35 179.85 -189.45 181.5 -190.35 185.65 -192.55 190.75 -191.95 195.75 -191.35 199.4 -188.3 199.85 -187.95 201.4 -186.4 202.65 -185.2 203.5 -184.6 206.4 -182.65 208.75 -183.6 208.4 -184.2 208.7 -184.9 209 -185.55 209.65 -185.75 210.55 -188.8 210.15 -192 209.7 -195.2 208.1 -197.95 205.25 -202.65 199.6 -204.9
M 199.8 -243.45
L 182.8 -230
Q 180.1 -227.95 178.6 -227.15 178.3 -227 177.95 -226.8 176.05 -227.55 174.1 -229.15 172.75 -230.15 171 -231.95 168.15 -234.85 168 -235 161.45 -241.2 152.3 -243.5 143.2 -245.75 134.45 -243.35 131.6 -242.55 127.8 -240.9 125.65 -239.95 121.3 -238 118.05 -236.55 113.5 -234.9 110.9 -233.9 105.6 -232.05 99.05 -229.75 95.15 -229 89.05 -227.7 79.15 -227.8 66.05 -227.95 63 -227.75
L 63 -218.15
Q 71.15 -216.65 76.8 -216.1 84.4 -215.4 90.7 -216 90.95 -216.05 96.5 -216.85
L 96.5 -216.8
Q 102.2 -216.15 108.7 -218.2 109.65 -218.2 110.55 -218.15
L 110.55 -218.85
Q 111 -219 111.45 -219.2 115.8 -220.9 122.6 -224.85
L 136.55 -229.3
Q 139.9 -230.3 141.15 -230.55 143.8 -231.15 145.85 -231.05 152.7 -230.65 159.45 -223.45 159.9 -223 160.45 -222.4 161.65 -221.15 163.45 -219.2 163.5 -219.15 163.55 -219.1 166 -216.65 168.25 -215.55 172.4 -213.45 178.65 -214.1 186.15 -214.8 193.3 -218.65 198.65 -221.5 203.1 -225.75 204.4 -225.85 205.65 -226.15 205.9 -227 207.25 -227 208.75 -226.9 209.15 -227.05 209.85 -233.15 210 -235.9 210.35 -240.9 210.1 -244.85
L 208 -244.9
Q 207.45 -245.55 206.6 -245.85 205.35 -246.25 204.1 -245.95 202.45 -245.6 199.8 -243.45 Z"/>
</g>

<g id="scarf_anim_0_Layer1_0_FILL">
<path fill="#009900" stroke="none" d="
M 18.55 -2.25
Q 15.7 -5.15 15.55 -5.3 9 -11.5 -0.15 -13.8 -9.25 -16.05 -18 -13.65 -20.85 -12.85 -24.65 -11.2 -26.8 -10.25 -31.15 -8.3 -34.4 -6.85 -38.95 -5.2 -41.55 -4.2 -46.85 -2.35 -53.4 -0.05 -57.3 0.7 -63.4 2 -73.3 1.9 -86.4 1.75 -89.45 1.95
L -89.45 11.55
Q -81.3 13.05 -75.65 13.6 -68.05 14.3 -61.75 13.7 -61.4857421875 13.6623046875 -55.95 12.8
L -55.95 12.9
Q -50.2470703125 13.5611328125 -43.8 11.5 -42.7837890625 11.494140625 -41.9 11.55
L -41.9 10.85
Q -41.445703125 10.6771484375 -41 10.5 -36.65546875 8.7873046875 -29.9 4.85
L -15.9 0.4
Q -12.55 -0.6 -11.3 -0.85 -8.65 -1.45 -6.6 -1.35 0.25 -0.95 7 6.25 7.4359375 6.7013671875 8 7.3 9.2072265625 8.569921875 11 10.5 11.0517578125 10.548046875 11.1 10.6 13.55 13.05 15.8 14.15 19.95 16.25 26.2 15.6 33.7 14.9 40.85 11.05 46.18671875 8.1853515625 50.6 3.9 51.93671875 3.8724609375 53.2 3.55 53.45 2.7 54.8 2.7 56.3 2.8 56.7 2.65 57.4 -3.45 57.55 -6.2 57.9 -11.2 57.65 -15.15
L 55.55 -15.25
Q 55.001171875 -15.8435546875 54.15 -16.15 52.9 -16.55 51.65 -16.25 50 -15.9 47.35 -13.75
L 30.35 -0.3
Q 27.65 1.75 26.15 2.55 25.825 2.719140625 25.5 2.85 23.595703125 2.1263671875 21.65 0.55 20.3 -0.45 18.55 -2.25 Z"/>
</g>
</defs>

<g transform="matrix( 0.40582275390625, 0, 0, 0.40582275390625, 1650.1,412.3) ">
<g transform="matrix( 1, 0, 0, 1, 0,0) ">
<use xlink:href="#Layer3_0_FILL"/>
</g>

<g transform="matrix( 1, 0, 0, 1, 0,0) ">
<use xlink:href="#Layer2_0_FILL"/>
</g>

<g transform="matrix( 1, 0, 0, 1, 0,0) ">
<use xlink:href="#Layer1_0_FILL"/>
</g>

<g transform="matrix( 1, 0, 0, 1, 0,0) ">
<use xlink:href="#Layer0_0_FILL"/>
</g>

<g transform="matrix( 1, 0, 0, 1, 123.1,37) ">
<g transform="matrix( 1, 0, 0, 1, 0,0) ">
<use xlink:href="#scarf_anim_0_Layer1_0_FILL"/>
</g>
</g>
</g>
</svg>
