
<svg xmlns="http://www.w3.org/2000/svg" version="1.1" xmlns:xlink="http://www.w3.org/1999/xlink" preserveAspectRatio="none" x="0px" y="0px" width="1920px" height="1020px" viewBox="0 0 1920 1020">
<defs>
<linearGradient id="Gradient_1" gradientUnits="userSpaceOnUse" x1="17.3125" y1="-508.225" x2="-18.2125" y2="508.225" spreadMethod="pad">
<stop  offset="0%" stop-color="#2796D3"/>

<stop  offset="100%" stop-color="#73C7F1"/>
</linearGradient>

<filter id="Filter_1" x="-20%" y="-20%" width="140%" height="140%" color-interpolation-filters="sRGB">
<feColorMatrix in="SourceGraphic" type="matrix" values="1 0 0 0 0 0 1 0 0 0 0 0 1 0 0 0 0 0 0.25 0" result="result1"/>
</filter>

<g id="sky_0_Layer0_0_FILL">
<path fill="url(#Gradient_1)" stroke="none" d="
M 964.5 -237.6
L 963.5 -237.6 963.5 -475.15 -960.5 -475.15 -960.5 -237.6 -959.5 -237.6 -959.5 0 -960.5 0 -960.5 237.6 -964.5 237.6 -964.5 475.15 959.5 475.15 959.5 237.6 963.5 237.6 963.5 0 964.5 0 964.5 -237.6 Z"/>
</g>

<g id="cloud_large_0_Layer0_0_FILL">
<path fill="#FFFFFF" stroke="none" d="
M 71 -31.05
Q 61.3 -31.05 53.6 -26.35 51.2 -44.05 38 -57.3 21.85 -73.4 -1 -73.4 -23.85 -73.4 -40 -57.3 -52.65 -44.6 -55.35 -27.8 -67.35 -39.1 -84 -39.1 -101.4 -39.1 -113.7 -26.8 -126 -14.5 -126 2.9 -126 10.4 -123.7 17 -130.2 13.95 -138 13.95 -152.1 13.95 -162.05 23.9 -172 33.85 -172 47.95 -172 62.05 -162.05 72 -161.3 72.75 -160.5 73.45
L 155.35 73.45
Q 157.6 71.7 159.7 69.6 172 57.3 172 39.9 172 22.5 159.7 10.2 147.4 -2.1 130 -2.1 115.7 -2.1 104.9 6.2 105 4.6 105 2.95 105 -11.15 95.05 -21.1 85.1 -31.05 71 -31.05 Z"/>
</g>

<g id="cloud_medium_0_Layer0_0_FILL">
<path fill="#FFFFFF" stroke="none" d="
M 75.35 -3.8
Q 75.35 -23.25 61.65 -37 47.9 -50.7 28.45 -50.7 9 -50.7 -4.75 -37 -6.15 -35.6 -7.35 -34.15 -9.55 -38.05 -12.9 -41.4 -22.25 -50.75 -35.5 -50.75 -48.75 -50.75 -58.1 -41.4 -67.45 -32.05 -67.45 -18.8 -67.45 -17.85 -67.4 -16.9 -75.95 -21.8 -86.5 -21.8 -102.65 -21.8 -114.1 -10.4 -125.5 1.05 -125.5 17.2 -125.5 33.35 -114.1 44.8 -110.55 48.3 -106.55 50.75
L 112.85 50.75
Q 114.9 49.25 116.75 47.4 125.55 38.6 125.55 26.15 125.55 13.7 116.75 4.9 107.95 -3.9 95.5 -3.9 83.35 -3.9 74.7 4.5 75.35 0.45 75.35 -3.8 Z"/>
</g>

<g id="cloud_small_0_Layer0_0_FILL">
<path fill="#FFFFFF" stroke="none" d="
M 29.6 -4.75
Q 28.65 -18.35 18.75 -28.3 7.75 -39.25 -7.8 -39.25 -23.35 -39.25 -34.35 -28.3 -45.3 -17.3 -45.3 -1.75 -45.3 1.95 -44.7 5.35 -51 0.95 -59.15 0.95 -69.75 0.95 -77.2 8.4 -84.7 15.9 -84.7 26.45 -84.7 33.55 -81.35 39.25
L 79.85 39.25
Q 84.7 31.45 84.7 21.65 84.7 7.6 74.75 -2.3 64.9 -12.2 50.85 -12.2 38.65 -12.2 29.6 -4.75 Z"/>
</g>

<g id="gree_bg_0_Layer0_0_FILL">
<path fill="#4196A7" stroke="none" d="
M 82.7 -82.75
Q 48.45 -117 0 -117 -48.45 -117 -82.75 -82.75 -117 -48.45 -117 0 -117 48.45 -82.75 82.7 -48.45 117 0 117 48.45 117 82.7 82.7 117 48.45 117 0 117 -48.45 82.7 -82.75 Z"/>
</g>

<g id="fokker_0_Layer7_0_FILL">
<path fill="#6D5A51" stroke="none" d="
M -391.4 -119.45
L -403.05 -119.45 -403.05 45.65 -391.4 45.65 -391.4 -119.45 Z"/>
</g>

<g id="box_0_Layer0_0_FILL">
<path fill="#6D5A51" stroke="none" d="
M 5 -5
L -5 -5 -5 5 5 5 5 -5 Z"/>
</g>

<g id="fokker_0_Layer5_0_FILL">
<path fill="#6D5A51" stroke="none" d="
M 77.05 -16.55
L 72.75 -19.05 64.8 -5.25 43.55 -26.55 40 -23.05 79.55 16.55 83.1 13.05 68.45 -1.6 77.05 -16.55 Z"/>
</g>

<g id="fokker_0_Layer4_0_FILL">
<path fill="#718899" stroke="none" d="
M -354.5 -77.5
L -385.5 -77.5 -385.5 -9.5
Q -374.15 2.1 -354.5 9.8
L -354.5 -77.5 Z"/>

<path fill="#ED1F21" stroke="none" d="
M 73.9 -49.25
L 71.4 -49.5 -188.95 -75.45 -197.5 -66.5 -197.5 -65.5 -228.5 -66.5 -238.9 -77.5 -354.5 -77.5 -354.5 9.8
Q -250.95 50.25 83.75 -18.05
L 83.75 -20 83.8 -45.5 83.5 -45.5 73.7 -49.95 73.9 -49.25 Z"/>

<path fill="#FFFFFF" stroke="none" d="
M 147.85 -105.9
L 98.55 -118.25 64.05 -93.6 64.05 -61.55 71.4 -49.5 73.9 -49.25 73.7 -49.95 83.5 -45.5 83.8 -45.5 83.75 -20 83.8 -17.2 135.5 -22.15 160.15 -66.5 147.85 -105.9 Z"/>
</g>

<g id="wheel_vector_0_Layer0_0_FILL">
<path fill="#000000" stroke="none" d="
M -9.05 -35.9
L -34.5 -16.55 -35.2 15.45 -10.65 35.95 20.7 29.55 35.2 1.05 21.95 -28.15 -9.05 -35.9
M -23.2 -11.1
L -6.1 -24.1 14.8 -18.85 23.7 0.75 13.95 19.95 -7.15 24.25 -23.7 10.45 -23.2 -11.1 Z"/>

<path fill="#CCCCCC" stroke="none" d="
M -6.1 -24.1
L -23.2 -11.1 -23.7 10.45 -7.15 24.25 13.95 19.95 23.7 0.75 14.8 -18.85 -6.1 -24.1 Z"/>
</g>

<g id="fokker_0_Layer2_0_FILL">
<path fill="#C20002" stroke="none" d="
M -265.7 6.95
Q -273.75 6.45 -281.3 7.65 -295.4 9.9 -308 18
L -307.2 21.4
Q -293.95 18 -280.5 17.2 -241.4 14.85 -200.3 34.2 -235.95 8.85 -265.7 6.95
M -287.5 -77.85
Q -289.95 -77.75 -292.3 -77.5 -298.4 -76.8 -304.25 -75.1 -314.5 -72.1 -324 -66
L -323.05 -64.5
Q -312.25 -65.45 -302.5 -65.85
L -302.45 -65.85
Q -296.25 -66.15 -290.45 -66.2 -247.65 -66.65 -228.6 -55.55 -223.6 -54.75 -218.45 -53.85 -217.45 -53.65 -216.5 -53.5 -221.45 -56.8 -226.3 -59.65 -255.2 -76.7 -280.25 -77.85 -283.9 -78.05 -287.5 -77.85
M -352.5 -152.5
L -352.1 -149.4 -351.5 -149.5
Q -335.5 -153.45 -316.1 -153.3 -281.85 -153.1 -237.05 -139.95 -282.7 -166.4 -317.35 -164 -336.65 -162.7 -352.5 -152.5 Z"/>

<path fill="#718899" stroke="none" d="
M -200.5 34.95
L -200.3 34.2
Q -241.4 14.85 -280.5 17.2 -293.95 18 -307.2 21.4 -307.4 21.45 -307.55 21.5
L -307 26
Q -263.3 18 -200.5 34.95
M -323.05 -64.5
L -320.5 -60.5
Q -311.5 -61.45 -301.35 -61.65
L -281.3 7.65
Q -273.75 6.45 -265.7 6.95
L -290.15 -61.6
Q -263 -61.05 -228.6 -55.55 -247.65 -66.65 -290.45 -66.2 -296.25 -66.15 -302.45 -65.85
L -302.5 -65.85
Q -312.25 -65.45 -323.05 -64.5
M -351.5 -149.5
L -352.1 -149.4 -351.5 -144.5
Q -340.4 -146.25 -327.25 -146.7 -325.9 -146.75 -324.5 -146.75
L -351.5 -75.5 -345.5 -77.5 -323.65 -135.45 -305.5 -79.5 -292.5 -79.5 -304.45 -116.9 -287.5 -86.5 -287.5 -77.85
Q -283.9 -78.05 -280.25 -77.85
L -279.5 -87.5 -310.45 -135.7 -314.05 -146.85
Q -280.15 -146.4 -234.5 -138.5 -235.75 -139.25 -237.05 -139.95 -281.85 -153.1 -316.1 -153.3 -335.5 -153.45 -351.5 -149.5 Z"/>

<path fill="#FFFFFF" stroke="none" d="
M -99.5 -42.5
L -99.5 -14.5
Q -88 -20.45 -76 -21.6 -77.35 -10.05 -83 2
L -57 3
Q -63.2 -9.75 -64.4 -21.6 -52.2 -20.45 -39.5 -14.5
L -38.5 -40.5
Q -51.85 -34 -64.2 -32.95 -64.35 -32.95 -64.45 -32.9 -64.35 -33.95 -64.2 -34.95 -62.45 -47 -55 -58
L -83 -58
Q -77.2 -46.85 -75.95 -35.25 -75.85 -34.25 -75.75 -33.2 -75.85 -33.25 -75.95 -33.25 -88.25 -34.9 -99.5 -42.5
M -94.5 -21.5
L -94.5 -35.5
Q -85.55 -31.35 -75.7 -30.25 -75.65 -30.25 -75.6 -30.25 -73.7 -30.05 -71.75 -29.95
L -71.7 -29.95
Q -71.75 -30.95 -71.75 -31.95 -71.8 -32.4 -71.8 -32.85 -71.9 -33.85 -71.95 -34.85 -72.7 -44.15 -76 -53
L -62 -53
Q -66.05 -44.3 -67.15 -34.75 -67.25 -33.75 -67.3 -32.75 -67.35 -32.35 -67.4 -31.9 -67.5 -30.9 -67.55 -29.9 -67.5 -29.9 -67.4 -29.9 -66.05 -29.95 -64.65 -30 -64.6 -30 -64.55 -30 -54 -30.65 -42.5 -34.5
L -42.5 -20.5
Q -53.9 -24.6 -64.7 -25.5
L -64.75 -25.5
Q -66.15 -25.6 -67.55 -25.65 -67.55 -24.75 -67.5 -23.8 -67.45 -22.8 -67.35 -21.8 -66.65 -11.8 -63 -1
L -77 -1
Q -73.15 -11.7 -72.05 -21.85 -72 -22.85 -71.9 -23.85 -71.85 -24.8 -71.8 -25.75 -73.7 -25.7 -75.6 -25.6
L -75.65 -25.6
Q -85.35 -24.9 -94.5 -21.5 Z"/>

<path fill="#000000" stroke="none" d="
M -94.5 -35.5
L -94.5 -21.5
Q -85.35 -24.9 -75.65 -25.6
L -75.6 -25.6
Q -73.7 -25.7 -71.8 -25.75 -71.85 -24.8 -71.9 -23.85 -72 -22.85 -72.05 -21.85 -73.15 -11.7 -77 -1
L -63 -1
Q -66.65 -11.8 -67.35 -21.8 -67.45 -22.8 -67.5 -23.8 -67.55 -24.75 -67.55 -25.65 -66.15 -25.6 -64.75 -25.5
L -64.7 -25.5
Q -53.9 -24.6 -42.5 -20.5
L -42.5 -34.5
Q -54 -30.65 -64.55 -30 -64.6 -30 -64.65 -30 -66.05 -29.95 -67.4 -29.9 -67.5 -29.9 -67.55 -29.9 -67.5 -30.9 -67.4 -31.9 -67.35 -32.35 -67.3 -32.75 -67.25 -33.75 -67.15 -34.75 -66.05 -44.3 -62 -53
L -76 -53
Q -72.7 -44.15 -71.95 -34.85 -71.9 -33.85 -71.8 -32.85 -71.8 -32.4 -71.75 -31.95 -71.75 -30.95 -71.7 -29.95
L -71.75 -29.95
Q -73.7 -30.05 -75.6 -30.25 -75.65 -30.25 -75.7 -30.25 -85.55 -31.35 -94.5 -35.5
M 78.55 -74.3
L 78.55 -57.75
Q 89.4 -61.75 100.85 -62.6
L 100.9 -62.6
Q 103.1 -62.7 105.35 -62.75
L 105.4 -62.75
Q 105.35 -61.65 105.3 -60.5 105.2 -59.35 105.1 -58.15 103.8 -46.15 99.25 -33.5
L 115.85 -33.5
Q 111.5 -46.25 110.7 -58.1 110.55 -59.25 110.5 -60.45 110.45 -61.6 110.45 -62.65 110.5 -62.65 110.55 -62.65 112.15 -62.6 113.75 -62.45
L 113.8 -62.45
Q 126.6 -61.4 140.05 -56.55
L 140.05 -73.1
Q 126.45 -68.55 114 -67.8 113.95 -67.8 113.85 -67.8 112.2 -67.75 110.6 -67.65 110.5 -67.65 110.45 -67.65 110.5 -68.85 110.6 -70.05 110.7 -70.55 110.75 -71.05 110.8 -72.2 110.9 -73.4 112.2 -84.7 117 -95
L 100.45 -95
Q 104.35 -84.5 105.25 -73.5 105.3 -72.35 105.4 -71.15 105.4 -70.65 105.5 -70.1 105.5 -68.9 105.55 -67.75
L 105.45 -67.75
Q 103.15 -67.85 100.9 -68.1 100.85 -68.1 100.8 -68.1 89.15 -69.4 78.55 -74.3 Z"/>

<path fill="#6D5A51" stroke="none" d="
M -409.5 -46.5
L -409.5 -28.5 -385.5 -28.5 -385.5 -46.5 -409.5 -46.5 Z"/>
</g>

<g id="fokker_0_Layer1_0_FILL">
<path fill="#6D5A51" stroke="none" d="
M -342.5 -90.5
L -342.5 -77.5 -256.5 -77.5 -256.5 -90.5 -342.5 -90.5 Z"/>
</g>

<g id="chicken_head_0_Layer3_0_FILL">
<path fill="#FF0000" stroke="none" d="
M 39.7 -19.15
Q 39.2 -15.05 39.2 -14.2 41.2 -14.7 43.45 -15.15 47.65 -16 50.55 -16.2 54.3 -16.45 57.5 -15.8 63.55 -14.6 68.7 -10 73.05 -6.1 75.45 -0.95 77.85 4.55 77.5 10.15 77.4 13 76.4 16.6 76.05 18.05 74.45 23 73.95 24.45 73.6 25.7 77.35 25.5 80.7 24.75 82.1 24.35 85 23.65 85.8 23.5 87.75 23.3 89.55 23.05 90.55 22.85 93.1 22.15 95.2 20.55 97.3 18.8 98.45 16.6 99.5 14.2 99.4 11.55 99.15 8.75 97.8 6.65 96.1 4.35 92.95 2.85 90.55 1.8 86.9 1.05 89.45 -1.2 90.2 -5 90.9 -8.45 90.1 -12.25 88.6 -19.65 83.9 -22.5 80.8 -24.35 76.45 -24.15 73.25 -24.1 68.75 -22.75 68.55 -27.25 66.1 -31.2 63.6 -35.2 59.6 -37 55.55 -38.85 50.9 -37.9 46.15 -36.85 43.5 -33.35 41.55 -30.8 40.7 -26.65 40.4 -25.15 39.7 -19.15 Z"/>

<path fill="#E7F0F6" stroke="none" d="
M 32.1 -11.55
Q 25.4 -8.25 21.4 -1.9 18.15 3.05 17.05 9.45 15.75 16.8 17.85 22.65 20.65 30.55 30.4 37.15 40.25 43.95 49.5 44.5 54.85 44.85 59.75 43.05 64.9 41.1 68.15 37.25 70.3 34.6 72 30.45 72.4 29.15 73.6 25.7 73.95 24.45 74.45 23 76.05 18.05 76.4 16.6 77.4 13 77.5 10.15 77.85 4.55 75.45 -0.95 73.05 -6.1 68.7 -10 63.55 -14.6 57.5 -15.8 54.3 -16.45 50.55 -16.2 47.65 -16 43.45 -15.15 41.2 -14.7 39.2 -14.2 35 -13.05 32.1 -11.55 Z"/>
</g>

<g id="chicken_head_0_Layer2_0_FILL">
<path fill="#FF9900" stroke="none" d="
M -7.6 2.7
L 26.25 24.25 26.85 -3.45 -7.6 2.7 Z"/>
</g>

<g id="chicken_head_0_Layer1_0_FILL">
<path fill="#000000" stroke="none" d="
M 51.2 -1.2
Q 50.65 -2.7 49.5 -3.4 48.45 -3.95 47.15 -3.8 45.85 -3.65 44.75 -2.9 43.2 -1.95 42.7 -0.5 42.45 0.15 42.35 1.85 42.35 3.15 42.5 3.8 42.65 4.85 43.25 5.55 44.1 6.55 45.7 6.75 47.25 6.9 48.75 6.3 50.25 5.65 50.95 4.35 51.5 3.3 51.6 1.7 51.65 0.05 51.2 -1.2 Z"/>
</g>

<g id="scarf_anim_0_Layer0_0_FILL">
<path fill="#009900" stroke="none" d="
M 18.55 -2.25
Q 15.7 -5.15 15.55 -5.3 9 -11.5 -0.15 -13.8 -9.25 -16.05 -18 -13.65 -20.85 -12.85 -24.65 -11.2 -26.8 -10.25 -31.15 -8.3 -34.4 -6.85 -38.95 -5.2 -41.55 -4.2 -46.85 -2.35 -53.4 -0.05 -57.3 0.7 -63.4 2 -73.3 1.9 -86.4 1.75 -89.45 1.95
L -89.45 11.55
Q -81.3 13.05 -75.65 13.6 -68.05 14.3 -61.75 13.7 -61.4857421875 13.6623046875 -55.95 12.8
L -55.95 12.9
Q -50.2470703125 13.5611328125 -43.8 11.5 -42.7837890625 11.494140625 -41.9 11.55
L -41.9 10.85
Q -41.445703125 10.6771484375 -41 10.5 -36.65546875 8.7873046875 -29.9 4.85
L -15.9 0.4
Q -12.55 -0.6 -11.3 -0.85 -8.65 -1.45 -6.6 -1.35 0.25 -0.95 7 6.25 7.4359375 6.7013671875 8 7.3 9.2072265625 8.569921875 11 10.5 11.0517578125 10.548046875 11.1 10.6 13.55 13.05 15.8 14.15 19.95 16.25 26.2 15.6 33.7 14.9 40.85 11.05 46.18671875 8.1853515625 50.6 3.9 51.93671875 3.8724609375 53.2 3.55 53.45 2.7 54.8 2.7 56.3 2.8 56.7 2.65 57.4 -3.45 57.55 -6.2 57.9 -11.2 57.65 -15.15
L 55.55 -15.25
Q 55.001171875 -15.8435546875 54.15 -16.15 52.9 -16.55 51.65 -16.25 50 -15.9 47.35 -13.75
L 30.35 -0.3
Q 27.65 1.75 26.15 2.55 25.825 2.719140625 25.5 2.85 23.595703125 2.1263671875 21.65 0.55 20.3 -0.45 18.55 -2.25 Z"/>
</g>

<g id="bullet_0_Layer0_0_FILL">
<path fill="#FFFF99" stroke="none" d="
M -14 0
L -16.45 2.45 -16.4 2.5 19 -0.55 -15.65 -2.5 -14 0 Z"/>

<path fill="#FFFFFF" stroke="none" d="
M -15.65 -2.5
L -16.15 -2.5 -19 -0.1 -16.45 2.45 -14 0 -15.65 -2.5 Z"/>
</g>

<g id="fokker_bluw_0_Layer7_0_FILL">
<path fill="#6D5A51" stroke="none" d="
M -391.4 -119.45
L -403.05 -119.45 -403.05 45.65 -391.4 45.65 -391.4 -119.45 Z"/>
</g>

<g id="fokker_bluw_0_Layer5_0_FILL">
<path fill="#6D5A51" stroke="none" d="
M 68.45 -1.6
L 77.05 -16.55 72.75 -19.05 64.8 -5.25 43.55 -26.55 40 -23.05 79.55 16.55 83.1 13.05 68.45 -1.6 Z"/>
</g>

<g id="fokker_bluw_0_Layer4_0_FILL">
<path fill="#155EC3" stroke="none" d="
M 73.9 -49.25
L 71.4 -49.5 -188.95 -75.45 -197.5 -66.5 -197.5 -65.5 -228.5 -66.5 -238.9 -77.5 -354.5 -77.5 -354.5 9.8
Q -290.9267578125 34.6337890625 -140.25 18.45 -128.4046875 17.2080078125 -116.05 15.7 -76.4080078125 10.82109375 -31.25 3.35 22.3626953125 -5.523046875 83.75 -18.05
L 83.75 -20 83.8 -45.5 83.5 -45.5 73.7 -49.95 73.9 -49.25 Z"/>

<path fill="#FFFFFF" stroke="none" d="
M 147.85 -105.9
L 98.55 -118.25 64.05 -93.6 64.05 -61.55 71.4 -49.5 73.9 -49.25 73.7 -49.95 83.5 -45.5 83.8 -45.5 83.75 -20 83.8 -17.2 135.5 -22.15 160.15 -66.5 147.85 -105.9 Z"/>

<path fill="#718899" stroke="none" d="
M -385.5 -77.5
L -385.5 -9.5
Q -374.15 2.1 -354.5 9.8
L -354.5 -77.5 -385.5 -77.5 Z"/>
</g>

<g id="fokker_bluw_0_Layer2_0_FILL">
<path fill="#FFFFFF" stroke="none" d="
M -99.5 -42.5
L -99.5 -14.5
Q -88 -20.45 -76 -21.6 -77.35 -10.05 -83 2
L -57 3
Q -63.2 -9.75 -64.4 -21.6 -52.2 -20.45 -39.5 -14.5
L -38.5 -40.5
Q -51.85 -34 -64.2 -32.95 -64.35 -32.95 -64.45 -32.9 -64.35 -33.95 -64.2 -34.95 -62.45 -47 -55 -58
L -83 -58
Q -77.2 -46.85 -75.95 -35.25 -75.85 -34.25 -75.75 -33.2 -75.85 -33.25 -75.95 -33.25 -88.25 -34.9 -99.5 -42.5
M -94.5 -21.5
L -94.5 -35.5
Q -85.55 -31.35 -75.7 -30.25 -75.65 -30.25 -75.6 -30.25 -73.7 -30.05 -71.75 -29.95
L -71.7 -29.95
Q -71.75 -30.95 -71.75 -31.95 -71.8 -32.4 -71.8 -32.85 -71.9 -33.85 -71.95 -34.85 -72.7 -44.15 -76 -53
L -62 -53
Q -66.05 -44.3 -67.15 -34.75 -67.25 -33.75 -67.3 -32.75 -67.35 -32.35 -67.4 -31.9 -67.5 -30.9 -67.55 -29.9 -67.5 -29.9 -67.4 -29.9 -66.05 -29.95 -64.65 -30 -64.6 -30 -64.55 -30 -54 -30.65 -42.5 -34.5
L -42.5 -20.5
Q -53.9 -24.6 -64.7 -25.5
L -64.75 -25.5
Q -66.15 -25.6 -67.55 -25.65 -67.55 -24.75 -67.5 -23.8 -67.45 -22.8 -67.35 -21.8 -66.65 -11.8 -63 -1
L -77 -1
Q -73.15 -11.7 -72.05 -21.85 -72 -22.85 -71.9 -23.85 -71.85 -24.8 -71.8 -25.75 -73.7 -25.7 -75.6 -25.6
L -75.65 -25.6
Q -85.35 -24.9 -94.5 -21.5 Z"/>

<path fill="#000000" stroke="none" d="
M -94.5 -35.5
L -94.5 -21.5
Q -85.35 -24.9 -75.65 -25.6
L -75.6 -25.6
Q -73.7 -25.7 -71.8 -25.75 -71.85 -24.8 -71.9 -23.85 -72 -22.85 -72.05 -21.85 -73.15 -11.7 -77 -1
L -63 -1
Q -66.65 -11.8 -67.35 -21.8 -67.45 -22.8 -67.5 -23.8 -67.55 -24.75 -67.55 -25.65 -66.15 -25.6 -64.75 -25.5
L -64.7 -25.5
Q -53.9 -24.6 -42.5 -20.5
L -42.5 -34.5
Q -54 -30.65 -64.55 -30 -64.6 -30 -64.65 -30 -66.05 -29.95 -67.4 -29.9 -67.5 -29.9 -67.55 -29.9 -67.5 -30.9 -67.4 -31.9 -67.35 -32.35 -67.3 -32.75 -67.25 -33.75 -67.15 -34.75 -66.05 -44.3 -62 -53
L -76 -53
Q -72.7 -44.15 -71.95 -34.85 -71.9 -33.85 -71.8 -32.85 -71.8 -32.4 -71.75 -31.95 -71.75 -30.95 -71.7 -29.95
L -71.75 -29.95
Q -73.7 -30.05 -75.6 -30.25 -75.65 -30.25 -75.7 -30.25 -85.55 -31.35 -94.5 -35.5
M 78.55 -74.3
L 78.55 -57.75
Q 89.4 -61.75 100.85 -62.6
L 100.9 -62.6
Q 103.1 -62.7 105.35 -62.75
L 105.4 -62.75
Q 105.35 -61.65 105.3 -60.5 105.2 -59.35 105.1 -58.15 103.8 -46.15 99.25 -33.5
L 115.85 -33.5
Q 111.5 -46.25 110.7 -58.1 110.55 -59.25 110.5 -60.45 110.45 -61.6 110.45 -62.65 110.5 -62.65 110.55 -62.65 112.15 -62.6 113.75 -62.45
L 113.8 -62.45
Q 126.6 -61.4 140.05 -56.55
L 140.05 -73.1
Q 126.45 -68.55 114 -67.8 113.95 -67.8 113.85 -67.8 112.2 -67.75 110.6 -67.65 110.5 -67.65 110.45 -67.65 110.5 -68.85 110.6 -70.05 110.7 -70.55 110.75 -71.05 110.8 -72.2 110.9 -73.4 112.2 -84.7 117 -95
L 100.45 -95
Q 104.35 -84.5 105.25 -73.5 105.3 -72.35 105.4 -71.15 105.4 -70.65 105.5 -70.1 105.5 -68.9 105.55 -67.75
L 105.45 -67.75
Q 103.15 -67.85 100.9 -68.1 100.85 -68.1 100.8 -68.1 89.15 -69.4 78.55 -74.3 Z"/>

<path fill="#6D5A51" stroke="none" d="
M -409.5 -46.5
L -409.5 -28.5 -385.5 -28.5 -385.5 -46.5 -409.5 -46.5 Z"/>

<path fill="#114B9B" stroke="none" d="
M -265.7 6.95
Q -273.75 6.45 -281.3 7.65 -295.4 9.9 -308 18
L -307.2 21.4
Q -293.95 18 -280.5 17.2 -241.4 14.85 -200.3 34.2 -235.95 8.85 -265.7 6.95
M -287.5 -77.85
Q -289.95 -77.75 -292.3 -77.5 -298.4 -76.8 -304.25 -75.1 -314.5 -72.1 -324 -66
L -323.05 -64.5
Q -312.25 -65.45 -302.5 -65.85
L -302.45 -65.85
Q -296.25 -66.15 -290.45 -66.2 -247.65 -66.65 -228.6 -55.55 -223.6 -54.75 -218.45 -53.85 -217.45 -53.65 -216.5 -53.5 -221.45 -56.8 -226.3 -59.65 -255.2 -76.7 -280.25 -77.85 -283.9 -78.05 -287.5 -77.85
M -352.1 -149.4
L -351.5 -149.5
Q -335.5 -153.45 -316.1 -153.3 -281.85 -153.1 -237.05 -139.95 -282.7 -166.4 -317.35 -164 -336.65 -162.7 -352.5 -152.5
L -352.1 -149.4 Z"/>

<path fill="#718899" stroke="none" d="
M -200.5 34.95
L -200.3 34.2
Q -241.4 14.85 -280.5 17.2 -293.95 18 -307.2 21.4 -307.4 21.45 -307.55 21.5
L -307 26
Q -263.3 18 -200.5 34.95
M -323.05 -64.5
L -320.5 -60.5
Q -311.5 -61.45 -301.35 -61.65
L -281.3 7.65
Q -273.75 6.45 -265.7 6.95
L -290.15 -61.6
Q -263 -61.05 -228.6 -55.55 -247.65 -66.65 -290.45 -66.2 -296.25 -66.15 -302.45 -65.85
L -302.5 -65.85
Q -312.25 -65.45 -323.05 -64.5
M -351.5 -149.5
L -352.1 -149.4 -351.5 -144.5
Q -340.4 -146.25 -327.25 -146.7 -325.9 -146.75 -324.5 -146.75
L -351.5 -75.5 -345.5 -77.5 -323.65 -135.45 -305.5 -79.5 -292.5 -79.5 -304.45 -116.9 -287.5 -86.5 -287.5 -77.85
Q -283.9 -78.05 -280.25 -77.85
L -279.5 -87.5 -310.45 -135.7 -314.05 -146.85
Q -280.15 -146.4 -234.5 -138.5 -235.75 -139.25 -237.05 -139.95 -281.85 -153.1 -316.1 -153.3 -335.5 -153.45 -351.5 -149.5 Z"/>
</g>

<g id="fokker_bluw_0_Layer1_0_FILL">
<path fill="#6D5A51" stroke="none" d="
M -342.5 -90.5
L -342.5 -77.5 -256.5 -77.5 -256.5 -90.5 -342.5 -90.5 Z"/>
</g>

<g id="tree_0_Layer1_0_FILL">
<path fill="#6D5A51" stroke="none" d="
M 0.45 34.15
L 0 34 -6.55 34.05 -6.55 71.95 0 71.95 0 72.05 7 72.05 7 34.15 0.45 34.15 Z"/>
</g>

<g id="tree_0_Layer0_0_FILL">
<path fill="#08573D" stroke="none" d="
M -33 36
L 0 36 0 -74 -33 36 Z"/>

<path fill="#0A6F4E" stroke="none" d="
M 0 36
L 33 36 0 -74 0 36 Z"/>
</g>

<g id="Layer2_0_FILL">
<path fill="#0A6F4E" stroke="none" d="
M 1919.5 1018.5
L 1919.5 930.5 -2.5 930.5 -2.5 1018.5 1919.5 1018.5 Z"/>
</g>
</defs>

<g transform="matrix( 1, 0, 0, 1, 960,475.2) ">
<g transform="matrix( 1, 0, 0, 1, 0,0) ">
<use xlink:href="#sky_0_Layer0_0_FILL"/>
</g>
</g>

<g transform="matrix( -1, 0, 0, 1, 1175,281.05) ">
<g transform="matrix( 1, 0, 0, 1, 0,0) ">
<use filter="url(#Filter_1)" xlink:href="#cloud_large_0_Layer0_0_FILL"/>
</g>
</g>

<g transform="matrix( 1, 0, 0, 1, 1215,664) ">
<g transform="matrix( 1, 0, 0, 1, 0,0) ">
<use filter="url(#Filter_1)" xlink:href="#cloud_medium_0_Layer0_0_FILL"/>
</g>
</g>

<g transform="matrix( -1, 0, 0, 1, 739.25,594.3) ">
<g transform="matrix( 1, 0, 0, 1, 0,0) ">
<use xlink:href="#cloud_small_0_Layer0_0_FILL"/>
</g>
</g>

<g transform="matrix( 1, 0, 0, 1, 109,365) ">
<g transform="matrix( 1, 0, 0, 1, 0,0) ">
<use xlink:href="#cloud_large_0_Layer0_0_FILL"/>
</g>
</g>

<g transform="matrix( 1, 0, 0, 1, 1548,200) ">
<g transform="matrix( 1, 0, 0, 1, 0,0) ">
<use filter="url(#Filter_1)" xlink:href="#cloud_small_0_Layer0_0_FILL"/>
</g>
</g>

<g transform="matrix( 1, 0, 0, 1, 1605,711) ">
<g transform="matrix( 1, 0, 0, 1, 0,0) ">
<use filter="url(#Filter_1)" xlink:href="#cloud_small_0_Layer0_0_FILL"/>
</g>
</g>

<g transform="matrix( 1, 0, 0, 1, 502,157) ">
<g transform="matrix( 1, 0, 0, 1, 0,0) ">
<use xlink:href="#cloud_medium_0_Layer0_0_FILL"/>
</g>
</g>

<g transform="matrix( 1, 0, 0, 1, 366,677) ">
<g transform="matrix( 1, 0, 0, 1, 0,0) ">
<use filter="url(#Filter_1)" xlink:href="#cloud_large_0_Layer0_0_FILL"/>
</g>
</g>

<g transform="matrix( 1, 0, 0, 1, 91.5,905.5) ">
<g transform="matrix( 1, 0, 0, 1, 0,0) ">
<use xlink:href="#gree_bg_0_Layer0_0_FILL"/>
</g>
</g>

<g transform="matrix( 1, 0, 0, 1, 274.5,968.5) ">
<g transform="matrix( 1, 0, 0, 1, 0,0) ">
<use xlink:href="#gree_bg_0_Layer0_0_FILL"/>
</g>
</g>

<g transform="matrix( 1, 0, 0, 1, 473,906) ">
<g transform="matrix( 1, 0, 0, 1, 0,0) ">
<use xlink:href="#gree_bg_0_Layer0_0_FILL"/>
</g>
</g>

<g transform="matrix( 1, 0, 0, 1, 625,984) ">
<g transform="matrix( 1, 0, 0, 1, 0,0) ">
<use xlink:href="#gree_bg_0_Layer0_0_FILL"/>
</g>
</g>

<g transform="matrix( 1, 0, 0, 1, 973,997) ">
<g transform="matrix( 1, 0, 0, 1, 0,0) ">
<use xlink:href="#gree_bg_0_Layer0_0_FILL"/>
</g>
</g>

<g transform="matrix( 1, 0, 0, 1, 1131,955) ">
<g transform="matrix( 1, 0, 0, 1, 0,0) ">
<use xlink:href="#gree_bg_0_Layer0_0_FILL"/>
</g>
</g>

<g transform="matrix( 1, 0, 0, 1, 1302,922) ">
<g transform="matrix( 1, 0, 0, 1, 0,0) ">
<use xlink:href="#gree_bg_0_Layer0_0_FILL"/>
</g>
</g>

<g transform="matrix( 1, 0, 0, 1, 1466,887) ">
<g transform="matrix( 1, 0, 0, 1, 0,0) ">
<use xlink:href="#gree_bg_0_Layer0_0_FILL"/>
</g>
</g>

<g transform="matrix( 1, 0, 0, 1, 1649,955) ">
<g transform="matrix( 1, 0, 0, 1, 0,0) ">
<use xlink:href="#gree_bg_0_Layer0_0_FILL"/>
</g>
</g>

<g transform="matrix( 1, 0, 0, 1, 1822,896) ">
<g transform="matrix( 1, 0, 0, 1, 0,0) ">
<use xlink:href="#gree_bg_0_Layer0_0_FILL"/>
</g>
</g>

<g transform="matrix( 0.4058380126953125, 0, 0, 0.4058380126953125, 1760,459) ">
<g transform="matrix( 1, 0, 0, 1, 0,0) ">
<use xlink:href="#fokker_0_Layer7_0_FILL"/>
</g>

<g transform="matrix( 0.481842041015625, -0.133514404296875, 2.0028076171875, 7.227630615234375, -351,28) ">
<g transform="matrix( 1, 0, 0, 1, 0,0) ">
<use xlink:href="#box_0_Layer0_0_FILL"/>
</g>
</g>

<g transform="matrix( 0.4464569091796875, 0.2250823974609375, -3.3762359619140625, 6.6970062255859375, -304.2,42.55) ">
<g transform="matrix( 1, 0, 0, 1, 0,0) ">
<use xlink:href="#box_0_Layer0_0_FILL"/>
</g>
</g>

<g transform="matrix( 1, 0, 0, 1, 0,0) ">
<use xlink:href="#fokker_0_Layer5_0_FILL"/>
</g>

<g transform="matrix( 1, 0, 0, 1, 0,0) ">
<use xlink:href="#fokker_0_Layer4_0_FILL"/>
</g>

<g transform="matrix( 1, 0, 0, 1, -323.25,83.8) ">
<g transform="matrix( 1, 0, 0, 1, 0,0) ">
<use xlink:href="#wheel_vector_0_Layer0_0_FILL"/>
</g>
</g>

<g transform="matrix( 1, 0, 0, 1, 0,0) ">
<use xlink:href="#fokker_0_Layer2_0_FILL"/>
</g>

<g transform="matrix( 1, 0, 0, 1, 0,0) ">
<use xlink:href="#fokker_0_Layer1_0_FILL"/>
</g>

<g transform="matrix( 1, 0, 0, 1, -270.7,-115) ">
<g transform="matrix( 1, 0, 0, 1, 0,0) ">
<use xlink:href="#chicken_head_0_Layer3_0_FILL"/>
</g>

<g transform="matrix( 1, 0, 0, 1, 0,0) ">
<use xlink:href="#chicken_head_0_Layer2_0_FILL"/>
</g>

<g transform="matrix( 1, 0, 0, 1, 0,0) ">
<use xlink:href="#chicken_head_0_Layer1_0_FILL"/>
</g>

<g transform="matrix( 1, 0, 0, 1, 123.1,37) ">
<g transform="matrix( 1, 0, 0, 1, 0,0) ">
<use xlink:href="#scarf_anim_0_Layer0_0_FILL"/>
</g>
</g>
</g>
</g>

<g transform="matrix( 1, 0, 0, 1, 1570,424) ">
<g transform="matrix( 1, 0, 0, 1, 0,0) ">
<use xlink:href="#bullet_0_Layer0_0_FILL"/>
</g>
</g>

<g transform="matrix( 0.40582275390625, 0, 0, 0.40582275390625, 1712.6,593.05) ">
<g transform="matrix( 1, 0, 0, 1, 0,0) ">
<use xlink:href="#fokker_bluw_0_Layer7_0_FILL"/>
</g>

<g transform="matrix( 0.481842041015625, -0.133514404296875, 2.0028076171875, 7.227630615234375, -351,28) ">
<g transform="matrix( 1, 0, 0, 1, 0,0) ">
<use xlink:href="#box_0_Layer0_0_FILL"/>
</g>
</g>

<g transform="matrix( 0.4464569091796875, 0.2250823974609375, -3.376220703125, 6.6970062255859375, -304.2,42.55) ">
<g transform="matrix( 1, 0, 0, 1, 0,0) ">
<use xlink:href="#box_0_Layer0_0_FILL"/>
</g>
</g>

<g transform="matrix( 1, 0, 0, 1, 0,0) ">
<use xlink:href="#fokker_bluw_0_Layer5_0_FILL"/>
</g>

<g transform="matrix( 1, 0, 0, 1, 0,0) ">
<use xlink:href="#fokker_bluw_0_Layer4_0_FILL"/>
</g>

<g transform="matrix( 1, 0, 0, 1, -323.25,83.8) ">
<g transform="matrix( 1, 0, 0, 1, 0,0) ">
<use xlink:href="#wheel_vector_0_Layer0_0_FILL"/>
</g>
</g>

<g transform="matrix( 1, 0, 0, 1, 0,0) ">
<use xlink:href="#fokker_bluw_0_Layer2_0_FILL"/>
</g>

<g transform="matrix( 1, 0, 0, 1, 0,0) ">
<use xlink:href="#fokker_bluw_0_Layer1_0_FILL"/>
</g>

<g transform="matrix( 1, 0, 0, 1, -270.7,-115) ">
<g transform="matrix( 1, 0, 0, 1, 0,0) ">
<use xlink:href="#chicken_head_0_Layer3_0_FILL"/>
</g>

<g transform="matrix( 1, 0, 0, 1, 0,0) ">
<use xlink:href="#chicken_head_0_Layer2_0_FILL"/>
</g>

<g transform="matrix( 1, 0, 0, 1, 0,0) ">
<use xlink:href="#chicken_head_0_Layer1_0_FILL"/>
</g>

<g transform="matrix( 1, 0, 0, 1, 123.1,37) ">
<g transform="matrix( 1, 0, 0, 1, 0,0) ">
<use xlink:href="#scarf_anim_0_Layer0_0_FILL"/>
</g>
</g>
</g>
</g>

<g transform="matrix( 1, 0, 0, 1, 176,864) ">
<g transform="matrix( 1, 0, 0, 1, 0,0) ">
<use xlink:href="#tree_0_Layer1_0_FILL"/>
</g>

<g transform="matrix( 1, 0, 0, 1, 0,0) ">
<use xlink:href="#tree_0_Layer0_0_FILL"/>
</g>
</g>

<g transform="matrix( 1, 0, 0, 1, 275,871) ">
<g transform="matrix( 1, 0, 0, 1, 0,0) ">
<use xlink:href="#tree_0_Layer1_0_FILL"/>
</g>

<g transform="matrix( 1, 0, 0, 1, 0,0) ">
<use xlink:href="#tree_0_Layer0_0_FILL"/>
</g>
</g>

<g transform="matrix( 1, 0, 0, 1, 227,877) ">
<g transform="matrix( 1, 0, 0, 1, 0,0) ">
<use xlink:href="#tree_0_Layer1_0_FILL"/>
</g>

<g transform="matrix( 1, 0, 0, 1, 0,0) ">
<use xlink:href="#tree_0_Layer0_0_FILL"/>
</g>
</g>

<g transform="matrix( 0.8243255615234375, 0, 0, 0.8243255615234375, 417,871) ">
<g transform="matrix( 1, 0, 0, 1, 0,0) ">
<use xlink:href="#tree_0_Layer1_0_FILL"/>
</g>

<g transform="matrix( 1, 0, 0, 1, 0,0) ">
<use xlink:href="#tree_0_Layer0_0_FILL"/>
</g>
</g>

<g transform="matrix( 0.8243255615234375, 0, 0, 0.8243255615234375, 1146,884) ">
<g transform="matrix( 1, 0, 0, 1, 0,0) ">
<use xlink:href="#tree_0_Layer1_0_FILL"/>
</g>

<g transform="matrix( 1, 0, 0, 1, 0,0) ">
<use xlink:href="#tree_0_Layer0_0_FILL"/>
</g>
</g>

<g transform="matrix( 0.8243255615234375, 0, 0, 0.8243255615234375, 1263,871) ">
<g transform="matrix( 1, 0, 0, 1, 0,0) ">
<use xlink:href="#tree_0_Layer1_0_FILL"/>
</g>

<g transform="matrix( 1, 0, 0, 1, 0,0) ">
<use xlink:href="#tree_0_Layer0_0_FILL"/>
</g>
</g>

<g transform="matrix( 1, 0, 0, 0.9999847412109375, 1340,883.95) ">
<g transform="matrix( 1, 0, 0, 1, 0,0) ">
<use xlink:href="#tree_0_Layer1_0_FILL"/>
</g>

<g transform="matrix( 1, 0, 0, 1, 0,0) ">
<use xlink:href="#tree_0_Layer0_0_FILL"/>
</g>
</g>

<g transform="matrix( 1.0999908447265625, 0, 0, 1.0999603271484375, 1382.95,856.9) ">
<g transform="matrix( 1, 0, 0, 1, 0,0) ">
<use xlink:href="#tree_0_Layer1_0_FILL"/>
</g>

<g transform="matrix( 1, 0, 0, 1, 0,0) ">
<use xlink:href="#tree_0_Layer0_0_FILL"/>
</g>
</g>

<g transform="matrix( 1.0999755859375, 0, 0, 1.0999603271484375, 1668.95,869.9) ">
<g transform="matrix( 1, 0, 0, 1, 0,0) ">
<use xlink:href="#tree_0_Layer1_0_FILL"/>
</g>

<g transform="matrix( 1, 0, 0, 1, 0,0) ">
<use xlink:href="#tree_0_Layer0_0_FILL"/>
</g>
</g>

<g transform="matrix( 0.9999847412109375, 0, 0, 0.999969482421875, 1437.95,870.9) ">
<g transform="matrix( 1, 0, 0, 1, 0,0) ">
<use xlink:href="#tree_0_Layer1_0_FILL"/>
</g>

<g transform="matrix( 1, 0, 0, 1, 0,0) ">
<use xlink:href="#tree_0_Layer0_0_FILL"/>
</g>
</g>

<g transform="matrix( 0.9999847412109375, 0, 0, 0.999969482421875, 1615.95,863.9) ">
<g transform="matrix( 1, 0, 0, 1, 0,0) ">
<use xlink:href="#tree_0_Layer1_0_FILL"/>
</g>

<g transform="matrix( 1, 0, 0, 1, 0,0) ">
<use xlink:href="#tree_0_Layer0_0_FILL"/>
</g>
</g>

<g transform="matrix( 0.8243255615234375, 0, 0, 0.8243255615234375, 481,884) ">
<g transform="matrix( 1, 0, 0, 1, 0,0) ">
<use xlink:href="#tree_0_Layer1_0_FILL"/>
</g>

<g transform="matrix( 1, 0, 0, 1, 0,0) ">
<use xlink:href="#tree_0_Layer0_0_FILL"/>
</g>
</g>

<g transform="matrix( 1.0999755859375, 0, 0, 1.0999603271484375, 85.95,863.9) ">
<g transform="matrix( 1, 0, 0, 1, 0,0) ">
<use xlink:href="#tree_0_Layer1_0_FILL"/>
</g>

<g transform="matrix( 1, 0, 0, 1, 0,0) ">
<use xlink:href="#tree_0_Layer0_0_FILL"/>
</g>
</g>

<g transform="matrix( 0.9999847412109375, 0, 0, 0.999969482421875, 32.95,857.9) ">
<g transform="matrix( 1, 0, 0, 1, 0,0) ">
<use xlink:href="#tree_0_Layer1_0_FILL"/>
</g>

<g transform="matrix( 1, 0, 0, 1, 0,0) ">
<use xlink:href="#tree_0_Layer0_0_FILL"/>
</g>
</g>

<g transform="matrix( 1, 0, 0, 1, 0,0) ">
<use xlink:href="#Layer2_0_FILL"/>
</g>
</svg>
